<mxfile host="drawio-plugin" modified="2021-03-11T14:02:54.059Z" agent="5.0 (Windows NT 6.2; Win64; x64) AppleWebKit/537.36 (KHTML, like Gecko) Chrome/84.0.4147.105 Safari/537.36" etag="PLff4FVFHsjT_GYl43ax" version="13.7.9" type="embed"><diagram id="ryODw6hwkIPNpniEInh7" name="Page-1"><mxGraphModel dx="1134" dy="754" grid="1" gridSize="10" guides="1" tooltips="1" connect="1" arrows="1" fold="1" page="1" pageScale="1" pageWidth="827" pageHeight="1169" math="0" shadow="0"><root><mxCell id="0"/><mxCell id="1" parent="0"/><mxCell id="4y__aKnfvtlqieuuxI3a-1" value="" style="shape=umlActor;verticalLabelPosition=bottom;verticalAlign=top;html=1;outlineConnect=0;" parent="1" vertex="1"><mxGeometry x="80" y="270" width="40" height="60" as="geometry"/></mxCell><mxCell id="4y__aKnfvtlqieuuxI3a-4" value="ARBITRE" style="shape=umlActor;verticalLabelPosition=bottom;verticalAlign=top;html=1;outlineConnect=0;" parent="1" vertex="1"><mxGeometry x="80" y="60" width="40" height="60" as="geometry"/></mxCell><mxCell id="4y__aKnfvtlqieuuxI3a-12" value="DIRECTEUR DE TOURNOI" style="text;html=1;align=center;verticalAlign=middle;resizable=0;points=[];autosize=1;" parent="1" vertex="1"><mxGeometry x="20" y="340" width="160" height="20" as="geometry"/></mxCell><mxCell id="4y__aKnfvtlqieuuxI3a-17" value="Généré les cadence de jeu" style="ellipse;whiteSpace=wrap;html=1;" parent="1" vertex="1"><mxGeometry x="210" y="100" width="130" height="80" as="geometry"/></mxCell><mxCell id="4y__aKnfvtlqieuuxI3a-18" value="Planifier" style="ellipse;whiteSpace=wrap;html=1;" parent="1" vertex="1"><mxGeometry x="270" y="250" width="110" height="80" as="geometry"/></mxCell><mxCell id="4y__aKnfvtlqieuuxI3a-23" value="" style="edgeStyle=orthogonalEdgeStyle;rounded=0;orthogonalLoop=1;jettySize=auto;html=1;startArrow=block;startFill=0;endArrow=none;endFill=0;strokeWidth=1;" parent="1" edge="1"><mxGeometry relative="1" as="geometry"><mxPoint x="99.5" y="140" as="sourcePoint"/><mxPoint x="99.5" y="250" as="targetPoint"/><Array as="points"><mxPoint x="99" y="260"/><mxPoint x="99" y="260"/></Array></mxGeometry></mxCell><mxCell id="4y__aKnfvtlqieuuxI3a-26" value="" style="shape=umlActor;verticalLabelPosition=bottom;verticalAlign=top;html=1;outlineConnect=0;" parent="1" vertex="1"><mxGeometry x="480" y="490" width="40" height="60" as="geometry"/></mxCell><mxCell id="4y__aKnfvtlqieuuxI3a-28" value="ADMIN" style="text;html=1;align=center;verticalAlign=middle;resizable=0;points=[];autosize=1;" parent="1" vertex="1"><mxGeometry x="475" y="550" width="50" height="20" as="geometry"/></mxCell><mxCell id="4y__aKnfvtlqieuuxI3a-30" value="" style="endArrow=none;html=1;entryX=0;entryY=0.5;entryDx=0;entryDy=0;exitX=1;exitY=0.3333333333333333;exitDx=0;exitDy=0;exitPerimeter=0;" parent="1" source="4y__aKnfvtlqieuuxI3a-4" target="4y__aKnfvtlqieuuxI3a-17" edge="1"><mxGeometry width="50" height="50" relative="1" as="geometry"><mxPoint x="140" y="80" as="sourcePoint"/><mxPoint x="230" y="70" as="targetPoint"/><Array as="points"/></mxGeometry></mxCell><mxCell id="4y__aKnfvtlqieuuxI3a-31" value="" style="endArrow=none;html=1;entryX=0;entryY=0.5;entryDx=0;entryDy=0;exitX=1;exitY=0.3333333333333333;exitDx=0;exitDy=0;exitPerimeter=0;" parent="1" source="4y__aKnfvtlqieuuxI3a-1" target="4y__aKnfvtlqieuuxI3a-18" edge="1"><mxGeometry width="50" height="50" relative="1" as="geometry"><mxPoint x="140" y="290" as="sourcePoint"/><mxPoint x="280" y="305" as="targetPoint"/><Array as="points"><mxPoint x="170" y="290"/></Array></mxGeometry></mxCell><mxCell id="4y__aKnfvtlqieuuxI3a-34" value="&lt;span&gt;Commenter un tournoi&lt;/span&gt;" style="ellipse;whiteSpace=wrap;html=1;" parent="1" vertex="1"><mxGeometry x="190" y="410" width="130" height="70" as="geometry"/></mxCell><mxCell id="4y__aKnfvtlqieuuxI3a-44" style="edgeStyle=orthogonalEdgeStyle;rounded=0;orthogonalLoop=1;jettySize=auto;html=1;entryX=0;entryY=0.5;entryDx=0;entryDy=0;startArrow=none;startFill=0;endArrow=none;endFill=0;strokeWidth=1;exitX=1;exitY=1;exitDx=0;exitDy=0;exitPerimeter=0;" parent="1" source="4y__aKnfvtlqieuuxI3a-1" target="4y__aKnfvtlqieuuxI3a-34" edge="1"><mxGeometry relative="1" as="geometry"><mxPoint x="180" y="326" as="sourcePoint"/><Array as="points"><mxPoint x="170" y="330"/><mxPoint x="170" y="440"/></Array></mxGeometry></mxCell><mxCell id="4y__aKnfvtlqieuuxI3a-45" value="Include" style="endArrow=open;endSize=12;dashed=1;html=1;strokeWidth=1;entryX=0;entryY=0.5;entryDx=0;entryDy=0;exitX=0.917;exitY=0.227;exitDx=0;exitDy=0;exitPerimeter=0;" parent="1" source="4y__aKnfvtlqieuuxI3a-17" target="4y__aKnfvtlqieuuxI3a-58" edge="1"><mxGeometry width="160" relative="1" as="geometry"><mxPoint x="360" y="80" as="sourcePoint"/><mxPoint x="490" y="80" as="targetPoint"/><Array as="points"><mxPoint x="450" y="79.5"/><mxPoint x="490" y="79.5"/></Array></mxGeometry></mxCell><mxCell id="4y__aKnfvtlqieuuxI3a-46" value="Exporter un PDF" style="ellipse;whiteSpace=wrap;html=1;" parent="1" vertex="1"><mxGeometry x="500" y="140" width="110" height="70" as="geometry"/></mxCell><mxCell id="4y__aKnfvtlqieuuxI3a-48" value="Gerer les utilisateurs" style="ellipse;whiteSpace=wrap;html=1;" parent="1" vertex="1"><mxGeometry x="590" y="480" width="150" height="70" as="geometry"/></mxCell><mxCell id="4y__aKnfvtlqieuuxI3a-49" value="" style="endArrow=none;html=1;entryX=0;entryY=0.5;entryDx=0;entryDy=0;exitX=0.5;exitY=0.5;exitDx=0;exitDy=0;exitPerimeter=0;" parent="1" source="4y__aKnfvtlqieuuxI3a-26" target="4y__aKnfvtlqieuuxI3a-48" edge="1"><mxGeometry width="50" height="50" relative="1" as="geometry"><mxPoint x="530" y="515" as="sourcePoint"/><mxPoint x="610" y="189.5" as="targetPoint"/><Array as="points"/></mxGeometry></mxCell><mxCell id="4y__aKnfvtlqieuuxI3a-56" value="Création d'un parcour" style="ellipse;whiteSpace=wrap;html=1;" parent="1" vertex="1"><mxGeometry x="500" y="255" width="110" height="70" as="geometry"/></mxCell><mxCell id="4y__aKnfvtlqieuuxI3a-57" value="Création d'un golf" style="ellipse;whiteSpace=wrap;html=1;" parent="1" vertex="1"><mxGeometry x="710" y="255" width="110" height="70" as="geometry"/></mxCell><mxCell id="4y__aKnfvtlqieuuxI3a-58" value="Importer csv" style="ellipse;whiteSpace=wrap;html=1;" parent="1" vertex="1"><mxGeometry x="500" y="45" width="110" height="70" as="geometry"/></mxCell><mxCell id="4y__aKnfvtlqieuuxI3a-63" value="Include" style="endArrow=open;endSize=12;dashed=1;html=1;strokeWidth=1;entryX=0;entryY=0.5;entryDx=0;entryDy=0;exitX=1;exitY=1;exitDx=0;exitDy=0;" parent="1" source="4y__aKnfvtlqieuuxI3a-17" edge="1"><mxGeometry width="160" relative="1" as="geometry"><mxPoint x="329.21000000000004" y="209.99999999999997" as="sourcePoint"/><mxPoint x="500" y="171.84" as="targetPoint"/><Array as="points"><mxPoint x="450" y="171.34"/><mxPoint x="490" y="171.34"/></Array></mxGeometry></mxCell><mxCell id="4y__aKnfvtlqieuuxI3a-67" value="point extention si absence de parcours" style="shape=note;size=20;whiteSpace=wrap;html=1;" parent="1" vertex="1"><mxGeometry x="370" y="350" width="150" height="40" as="geometry"/></mxCell><mxCell id="4y__aKnfvtlqieuuxI3a-77" style="edgeStyle=orthogonalEdgeStyle;rounded=0;orthogonalLoop=1;jettySize=auto;html=1;startArrow=none;startFill=0;endArrow=oval;endFill=1;strokeWidth=1;" parent="1" source="4y__aKnfvtlqieuuxI3a-69" edge="1"><mxGeometry relative="1" as="geometry"><mxPoint x="665" y="290" as="targetPoint"/></mxGeometry></mxCell><mxCell id="4y__aKnfvtlqieuuxI3a-69" value="point extention si absence de golf" style="shape=note;size=20;whiteSpace=wrap;html=1;" parent="1" vertex="1"><mxGeometry x="590" y="350" width="150" height="40" as="geometry"/></mxCell><mxCell id="4y__aKnfvtlqieuuxI3a-78" style="edgeStyle=orthogonalEdgeStyle;rounded=0;orthogonalLoop=1;jettySize=auto;html=1;startArrow=none;startFill=0;endArrow=oval;endFill=1;strokeWidth=1;" parent="1" edge="1"><mxGeometry relative="1" as="geometry"><mxPoint x="440" y="290" as="targetPoint"/><mxPoint x="440" y="350" as="sourcePoint"/><Array as="points"><mxPoint x="440" y="320"/><mxPoint x="440" y="320"/></Array></mxGeometry></mxCell><mxCell id="4y__aKnfvtlqieuuxI3a-79" value="extends" style="endArrow=open;endSize=12;dashed=1;html=1;strokeWidth=1;" parent="1" target="4y__aKnfvtlqieuuxI3a-18" edge="1"><mxGeometry width="160" relative="1" as="geometry"><mxPoint x="500" y="287" as="sourcePoint"/><mxPoint x="440" y="210.5" as="targetPoint"/><Array as="points"><mxPoint x="430" y="284"/></Array></mxGeometry></mxCell><mxCell id="4y__aKnfvtlqieuuxI3a-80" value="extends" style="endArrow=open;endSize=12;dashed=1;html=1;strokeWidth=1;" parent="1" edge="1"><mxGeometry width="160" relative="1" as="geometry"><mxPoint x="710" y="287" as="sourcePoint"/><mxPoint x="604.9110116239777" y="286.8667993357726" as="targetPoint"/><Array as="points"><mxPoint x="655.08" y="284"/></Array></mxGeometry></mxCell></root></mxGraphModel></diagram></mxfile>